<svg width="800" height="74" viewBox="0 0 800 74" fill="none" xmlns="http://www.w3.org/2000/svg">
<path d="M481.653 16.9249V14.5064C481.653 11.8359 480.542 10.7274 477.36 10.7274C474.177 10.7274 473.116 11.8359 473.116 14.5064V29.9246C473.116 32.5951 474.177 33.7036 477.309 33.7036C480.441 33.7036 481.653 31.7385 481.653 28.665V25.0875H476.602V20.7039H487.665V37.6337H482.462V35.2152C481.502 36.5756 479.683 38.188 475.44 38.188C470.086 38.188 467.055 35.971 467.055 28.8161V16.0179C467.055 8.86307 471.197 6.34375 477.41 6.34375C483.624 6.34375 487.665 9.11501 487.665 14.6575V16.9753H481.603L481.653 16.9249Z" fill="white"/>
<path d="M511.608 6.90625V11.441H499.687V19.2005H510.446V23.6849H499.687V33.0568H511.608V37.5916H493.625V6.90625H511.608Z" fill="white"/>
<path d="M538.691 6.90625V37.5916H531.266L523.183 14.1619V37.5916H517.172V6.90625H524.547L532.68 30.1848V6.90625H538.691Z" fill="white"/>
<path d="M563.646 6.90625V11.441H556.069V37.5916H550.058V11.441H542.531V6.90625H563.646Z" fill="white"/>
<path d="M573.499 33.0568H585.37V37.5916H567.438V6.90625H573.499V33.0568Z" fill="white"/>
<path d="M607.14 6.90625V11.441H595.218V19.2005H605.978V23.6849H595.218V33.0568H607.14V37.5916H589.156V6.90625H607.14Z" fill="white"/>
<path d="M649.513 6.90625V37.5916H643.452V14.0107L638.35 37.5916H633.601L628.449 13.91V37.5916H622.438V6.90625H630.924L635.975 30.336L641.027 6.90625H649.513Z" fill="white"/>
<path d="M669.826 14.9094C669.826 11.7351 668.715 10.8281 665.583 10.8281C662.451 10.8281 661.339 11.7351 661.339 14.9094V29.6223C661.339 32.7462 662.451 33.7036 665.583 33.7036C668.715 33.7036 669.826 32.7966 669.826 29.6223V14.9094ZM675.837 16.3707V28.1611C675.837 35.6687 672.2 38.1376 665.583 38.1376C658.965 38.1376 655.328 35.6183 655.328 28.1611V16.3203C655.328 8.81269 658.965 6.34375 665.583 6.34375C672.2 6.34375 675.837 8.86307 675.837 16.3203" fill="white"/>
<path d="M703.218 6.90625V37.5916H695.793L687.66 14.1619V37.5916H681.648V6.90625H689.074L697.156 30.1848V6.90625H703.218Z" fill="white"/>
<path d="M728.021 14.0572V15.8711H722.01V14.3595C722.01 11.8402 721.606 10.6813 718.676 10.6813C715.746 10.6813 715.392 11.8402 715.392 13.9564C715.392 15.6695 715.797 16.4757 717.464 17.5842L723.323 21.3632C726.556 23.4291 728.425 24.6383 728.425 30.0801C728.425 35.5218 724.889 38.1419 718.979 38.1419C711.958 38.1419 709.078 35.6226 709.078 30.0801V27.5104H715.14V29.7777C715.14 33.0529 716.15 33.8087 718.979 33.8087C721.808 33.8087 722.364 32.549 722.364 30.332C722.364 28.115 722.01 27.3088 719.939 25.898L714.231 22.0182C710.695 19.5997 709.381 18.4912 709.381 13.9564C709.381 10.127 711.604 6.39844 718.777 6.39844C725.95 6.39844 728.173 9.47201 728.173 14.1076" fill="white"/>
<path d="M752.162 6.90625V11.441H744.585V37.5916H738.574V11.441H731.047V6.90625H752.162Z" fill="white"/>
<path d="M773.936 6.90625V11.441H762.015V19.2005H772.775V23.6849H762.015V33.0568H773.936V37.5916H755.953V6.90625H773.936Z" fill="white"/>
<path d="M789.646 19.4525C792.929 19.4525 793.485 18.0417 793.485 15.4216C793.485 12.8015 793.03 11.3906 789.747 11.3906H785.503V19.4525H789.646V19.4525ZM798.839 27.212V33.8126C798.839 35.425 799.243 36.7854 800.001 37.5916H793.788C793.283 36.7854 792.828 35.425 792.828 33.863V27.212C792.828 24.6927 791.868 23.9873 789.696 23.9873H785.503V37.5916H779.492V6.90625H790.504C798.536 6.90625 799.597 11.2395 799.597 15.4719C799.597 18.8982 797.779 21.3672 793.434 21.9718C797.021 22.2741 798.89 24.2392 798.89 27.212" fill="white"/>
<path d="M136.795 59.1541V68.4252C136.795 69.9872 136.896 70.9949 137.098 71.4987C137.35 72.1034 137.906 72.4561 138.815 72.5065H139.32C139.32 72.5065 139.674 72.708 139.674 72.9096C139.674 73.1111 139.522 73.2623 139.219 73.2623C139.169 73.2623 139.017 73.2623 138.866 73.2623C138.613 73.2623 138.31 73.2623 138.058 73.2623H136.138L135.683 73.2119C135.077 73.2119 134.319 73.2623 133.309 73.4134C132.956 73.4134 132.703 73.4638 132.551 73.4638C132.299 73.4638 132.147 73.363 132.147 73.1615C132.147 72.96 132.248 72.8592 132.45 72.8088C133.057 72.6576 133.511 72.3553 133.713 71.9018C133.915 71.4484 134.016 70.6422 134.016 69.4329V60.0106C134.016 59.0533 133.814 58.3983 133.461 57.9448C133.107 57.4913 132.501 57.2394 131.642 57.1386C131.339 57.1386 131.188 56.9875 131.188 56.7355C131.188 56.4836 131.39 56.3828 131.743 56.3828C131.844 56.3828 132.046 56.3828 132.299 56.3828C133.208 56.4332 134.218 56.4836 135.431 56.4836C135.986 56.4836 136.441 56.4836 136.845 56.4836L138.209 56.3828C138.664 56.3828 139.068 56.3828 139.472 56.3828C141.796 56.3828 143.463 56.8867 144.523 57.844C145.483 58.7006 145.938 59.7587 145.938 61.0184C145.938 62.3788 145.433 63.4873 144.422 64.4446C143.412 65.402 142.2 65.8555 140.735 65.8555C139.927 65.8555 139.27 65.7547 138.664 65.6035C138.058 65.4524 137.754 65.2508 137.754 64.9989C137.754 64.747 137.855 64.6462 138.058 64.6462C138.058 64.6462 138.159 64.6462 138.26 64.6462C138.714 64.7973 139.118 64.8477 139.573 64.8477C140.583 64.8477 141.392 64.5454 141.998 63.8904C142.654 63.2354 142.957 62.4292 142.957 61.4718C142.957 60.2626 142.604 59.2548 141.846 58.4487C141.088 57.6929 140.179 57.2898 139.017 57.2898C138.108 57.2898 137.502 57.4409 137.199 57.6929C136.896 57.9448 136.744 58.4487 136.744 59.2045" fill="white"/>
<path d="M158.984 57.7964L164.54 70.5945C164.843 71.2495 165.147 71.703 165.551 72.0557C165.904 72.358 166.409 72.61 167.016 72.7107C167.167 72.7107 167.218 72.8619 167.218 73.0634C167.218 73.3154 167.117 73.4162 166.915 73.4162C166.814 73.4162 166.662 73.4162 166.46 73.3154C165.803 73.1642 164.793 73.1138 163.379 73.1138C161.964 73.1138 161.004 73.1642 160.499 73.3154C160.398 73.3154 160.247 73.3658 160.196 73.3658C159.944 73.3658 159.842 73.265 159.842 73.0131C159.842 72.9123 159.944 72.8115 160.095 72.7611C160.499 72.6604 160.802 72.4588 161.055 72.1565C161.307 71.8542 161.459 71.5519 161.459 71.1991C161.459 70.7457 161.105 69.7379 160.398 68.176C160.196 67.6721 159.944 67.4202 159.691 67.3698C159.438 67.3194 158.479 67.269 156.862 67.269H155.195L154.084 67.4706C153.781 67.6217 153.427 68.1256 153.073 69.0829L152.72 70.0403C152.619 70.2922 152.568 70.5945 152.568 70.8464C152.568 71.8542 153.276 72.4588 154.74 72.6604C155.044 72.6604 155.195 72.8115 155.195 73.0131C155.195 73.2146 155.044 73.3154 154.74 73.3154C154.589 73.3154 154.387 73.3154 154.134 73.265C153.579 73.1642 153.124 73.1138 152.669 73.1138C152.265 73.1138 151.659 73.1138 150.8 73.2146C150.144 73.3154 149.74 73.3154 149.588 73.3154C149.335 73.3154 149.234 73.2146 149.234 73.0131C149.234 72.8619 149.335 72.7107 149.588 72.6604C150.043 72.5092 150.396 72.2573 150.649 71.9046C150.901 71.5519 151.305 70.7457 151.811 69.5868L155.145 61.8777C155.397 61.273 155.599 60.8195 155.7 60.618L156.862 58.3002L157.468 57.1413C157.721 56.5367 157.923 56.2344 158.024 56.2344C158.175 56.2344 158.378 56.5871 158.681 57.2421L158.984 57.8971V57.7964ZM159.438 65.4551L157.822 61.7265C157.418 60.8195 157.165 60.3661 157.014 60.3661C156.913 60.3661 156.761 60.6684 156.458 61.2226L156.205 61.7265L154.791 64.9512L154.639 65.2535C154.639 65.2535 154.538 65.5055 154.538 65.5559C154.538 65.8078 154.842 65.959 155.397 65.959H158.984C159.287 65.959 159.438 65.8582 159.438 65.707C159.438 65.707 159.438 65.6063 159.388 65.5055V65.3543L159.438 65.4551Z" fill="white"/>
<path d="M178.97 68.3775C178.97 69.9395 179.122 70.9976 179.374 71.5519C179.677 72.1061 180.233 72.4084 181.092 72.5092C181.445 72.5092 181.597 72.6604 181.597 72.9123C181.597 73.1642 181.445 73.265 181.193 73.265C181.092 73.265 180.94 73.265 180.688 73.265C179.98 73.2146 179.324 73.1642 178.667 73.1642C178.111 73.1642 177.606 73.1642 177.202 73.1642L176.192 73.265H175.384C175.384 73.265 174.979 73.3658 174.878 73.3658C174.575 73.3658 174.424 73.265 174.424 73.0131C174.424 72.8115 174.525 72.7107 174.676 72.6604C175.232 72.5092 175.636 72.2573 175.838 71.9549C176.04 71.6526 176.141 71.2495 176.141 70.6449V68.9821V60.1645C176.141 59.2072 176.04 58.5522 175.788 58.1994C175.384 57.6452 174.727 57.3429 173.818 57.2421C173.464 57.1917 173.312 57.0406 173.312 56.7886C173.312 56.5367 173.414 56.4359 173.666 56.4359C173.767 56.4359 173.919 56.4359 174.121 56.4359C174.727 56.4863 175.434 56.5367 176.192 56.5367C177 56.5367 178.01 56.4863 179.172 56.3855C180.587 56.2848 181.496 56.2344 182.052 56.2344C183.618 56.2344 184.88 56.6375 185.941 57.494C186.952 58.3506 187.457 59.4087 187.457 60.6684C187.457 61.4746 187.204 62.2304 186.8 62.8854C186.345 63.5404 185.739 64.0443 184.931 64.397C184.779 64.4474 184.678 64.5481 184.678 64.6489C184.678 64.7497 184.678 64.8001 184.779 64.9512C184.83 65.052 184.981 65.2535 185.133 65.5055L186.244 67.4202L187.507 69.6372C187.962 70.393 188.315 70.8968 188.669 71.1991C189.023 71.5015 189.427 71.6526 189.881 71.6526C190.083 71.6526 190.235 71.6526 190.387 71.6022C190.488 71.6022 190.589 71.6022 190.639 71.6022C190.791 71.6022 190.892 71.703 190.892 71.9046C190.892 72.1565 190.538 72.4084 189.881 72.7107C189.225 73.0131 188.618 73.1642 188.113 73.1642C187.255 73.1642 186.497 72.7611 185.79 71.9046C185.082 71.0984 184.173 69.5364 183.011 67.2186C182.557 66.3117 182.203 65.7574 181.9 65.5055C181.597 65.2535 181.142 65.1528 180.486 65.1528H179.728L179.172 65.2535C179.172 65.2535 178.97 65.5055 178.97 65.8582V68.3271V68.3775ZM178.97 58.8545V63.0869C178.97 63.5908 179.021 63.9435 179.172 64.0947C179.324 64.2458 179.627 64.2962 180.132 64.2962C181.597 64.2962 182.506 64.2962 182.86 64.1954C183.213 64.145 183.516 63.9939 183.82 63.6916C184.426 63.1373 184.729 62.4319 184.729 61.4746C184.729 60.2653 184.325 59.2576 183.516 58.4514C182.708 57.6452 181.647 57.2421 180.435 57.2421C179.879 57.2421 179.475 57.3429 179.273 57.5948C179.071 57.8467 178.97 58.2498 178.97 58.8545" fill="white"/>
<path d="M202.615 69.3356L202.716 70.5449C202.817 71.1496 203.07 71.6534 203.423 72.0061C203.827 72.3588 204.282 72.51 204.939 72.51C205.343 72.51 205.545 72.6108 205.545 72.8627C205.545 73.1146 205.292 73.2154 204.737 73.2154C204.484 73.2154 204.181 73.2154 203.726 73.165C202.665 73.0642 201.807 72.9635 201.15 72.9635C200.342 72.9635 199.685 72.9635 199.23 73.1146C198.826 73.165 198.523 73.2154 198.372 73.2154C198.22 73.2154 198.069 73.1146 198.018 72.9635V72.8627L198.372 72.5604C198.978 72.3588 199.331 72.1069 199.534 71.8046C199.736 71.5023 199.837 70.9984 199.837 70.293V69.2349V59.5103C199.837 58.7545 199.685 58.2506 199.433 57.8979C199.18 57.5956 198.675 57.3437 198.018 57.2429C197.614 57.1925 197.311 57.0917 197.21 57.0413C197.058 56.991 197.008 56.8902 197.008 56.739C197.008 56.4871 197.109 56.3863 197.311 56.3863C197.462 56.3863 197.664 56.3863 197.968 56.4871C198.271 56.5375 198.776 56.5879 199.433 56.5879C199.887 56.5879 200.443 56.5879 201.15 56.4871H202.059C202.918 56.3359 203.575 56.3359 203.979 56.3359C204.231 56.3359 204.383 56.4367 204.383 56.6383C204.383 56.7894 204.383 56.8902 204.332 56.9406C204.332 56.991 204.181 57.0413 204.029 57.0413C203.423 57.1421 203.07 57.2933 202.868 57.5452C202.716 57.7468 202.615 58.2506 202.615 58.956V69.386V69.3356Z" fill="white"/>
<path d="M217.525 56.0781C218.283 56.0781 219.04 56.2293 219.798 56.5316L220.606 56.8843C220.96 57.0355 221.213 57.0859 221.415 57.0859C221.516 57.0859 221.667 57.0859 221.768 56.9851L222.223 56.7331C222.223 56.7331 222.374 56.7331 222.425 56.7331C222.576 56.7331 222.677 56.8843 222.677 57.1362V58.144C222.677 58.144 222.677 58.4463 222.677 58.5974L222.829 59.8067L222.93 60.9152C222.93 60.9152 222.93 61.0664 222.93 61.1672C222.93 61.5199 222.829 61.671 222.627 61.671C222.475 61.671 222.374 61.5199 222.324 61.2175C222.071 60.0587 221.465 59.1013 220.505 58.2447C219.546 57.4386 218.535 56.9851 217.474 56.9851C216.717 56.9851 216.111 57.237 215.555 57.7409C214.999 58.2447 214.747 58.799 214.747 59.5044C214.747 60.109 214.999 60.6633 215.454 61.1168C215.757 61.4191 216.717 61.8726 218.384 62.578C220.303 63.3842 221.617 64.14 222.273 64.8958C223.031 65.8027 223.385 66.9112 223.385 68.2213C223.385 69.6321 222.88 70.8917 221.819 71.9499C220.758 73.008 219.546 73.5118 218.182 73.5118C217.626 73.5118 216.717 73.3103 215.504 72.9072C214.949 72.7057 214.494 72.6049 214.241 72.5545C213.837 72.5041 213.635 72.4033 213.585 72.3529C213.534 72.3026 213.484 72.0506 213.433 71.7483C213.433 71.3452 213.282 70.791 213.08 70.0856C212.777 68.9771 212.625 68.2716 212.625 67.9693C212.625 67.5662 212.777 67.3647 213.029 67.3647C213.13 67.3647 213.231 67.4655 213.282 67.667C213.686 69.0778 214.393 70.2367 215.353 71.1941C216.363 72.1514 217.373 72.6049 218.434 72.6049C219.242 72.6049 220 72.3026 220.657 71.6475C221.314 71.0429 221.617 70.2871 221.617 69.4809C221.617 68.8259 221.465 68.322 221.111 67.9189C220.758 67.5158 220.202 67.1128 219.343 66.7601L217.474 65.9035C215.706 65.1477 214.494 64.3919 213.888 63.6865C213.282 62.9811 212.928 62.0741 212.928 60.8648C212.928 59.5044 213.383 58.3959 214.241 57.4889C215.1 56.582 216.212 56.1285 217.525 56.1285" fill="white"/>
<path d="M11.2143 3.77915L21.6709 26.5538C22.1255 27.5615 22.5296 28.0654 22.8327 28.015C23.1358 28.015 23.4389 27.6623 23.7925 26.9569L33.3398 6.5504C34.249 4.63572 34.9057 3.37606 35.2593 2.92258C35.6635 2.41872 36.1686 2.16678 36.7748 2.16678C37.0274 2.16678 37.381 2.16678 37.8861 2.21717C38.3913 2.26756 38.8964 2.31794 39.4016 2.31794C40.1088 2.31794 40.9675 2.26756 41.9778 2.16678C42.483 2.16678 42.8871 2.1164 43.1397 2.1164C43.7458 2.1164 44.0489 2.36833 44.0489 2.82181C44.0489 3.2249 43.7963 3.42645 43.3417 3.47683C41.7252 3.5776 40.6139 4.13186 40.0077 5.0892C39.351 6.04654 39.048 7.65891 39.048 9.9263V11.6394L39.6541 27.4608V28.4685C39.6541 30.8367 40.1088 32.5498 40.917 33.6583C41.7252 34.7668 43.0891 35.4722 44.9582 35.6738C45.4128 35.7242 45.6654 35.9761 45.6654 36.4296C45.6654 36.883 45.0592 37.135 43.9479 37.135C43.5943 37.135 43.0891 37.135 42.3314 36.9838C40.2603 36.7319 38.7954 36.6311 37.9366 36.6311C36.1181 36.6311 34.6532 36.7319 33.4408 36.883C32.3295 37.0342 31.5718 37.135 31.1171 37.135C30.6625 37.135 30.4604 36.9334 30.4604 36.4799C30.4604 36.1776 30.713 35.9257 31.2182 35.7745C32.1779 35.5226 32.8851 35.0691 33.2893 34.4645C33.6934 33.8599 33.8954 33.0033 33.8954 31.8444C33.8954 31.2901 33.8954 30.8871 33.8954 30.6351L33.1377 13.7557C33.1377 13.3022 32.9862 13.0503 32.7841 13.0503C32.5315 13.0503 32.1779 13.5037 31.7233 14.4611L22.1255 34.7668L21.7719 35.5226C21.2667 36.5807 20.8626 37.135 20.5595 37.135C20.2059 37.135 19.5492 36.228 18.6905 34.3637L17.3771 31.7436L9.34524 13.5541L9.14318 13.151C9.14318 13.151 8.99164 12.9495 8.84009 12.9495C8.58752 12.9495 8.43597 13.3022 8.43597 14.0076V14.8138L8.08237 27.6623V28.6701L8.28443 31.0382C8.73906 33.5575 10.103 35.0691 12.2751 35.6234C13.0328 35.8249 13.4369 36.1272 13.4369 36.4799C13.4369 36.9334 13.1339 37.135 12.5277 37.135C12.073 37.135 11.5174 37.135 10.8607 37.0342L9.04215 36.7823C8.58752 36.7319 7.93083 36.6815 7.07207 36.6815C5.50611 36.6815 4.29376 36.7319 3.43501 36.9334C2.87934 37.0342 2.42471 37.0846 2.17214 37.0846C1.66699 37.0846 1.3639 36.883 1.3639 36.4296C1.3639 36.1272 1.56596 35.8753 1.97008 35.7745C3.28346 35.3211 4.24324 34.5653 4.84942 33.4064C5.4556 32.2979 5.75869 30.7359 5.75869 28.7204L6.4659 12.0425L6.56693 10.3294C6.56693 8.31393 6.06178 6.70156 5.05148 5.54268C4.04119 4.38379 2.67729 3.77915 0.959782 3.77915C0.303089 3.77915 0 3.52722 0 3.02335C0 2.51949 0.353604 2.26756 1.11133 2.26756C1.26287 2.26756 1.46493 2.26756 1.7175 2.26756L3.18243 2.36833C3.43501 2.36833 3.78861 2.36833 4.24324 2.36833C5.05148 2.36833 5.8092 2.31794 6.56693 2.21717C7.72877 2.06601 8.48649 2.01562 8.84009 2.01562C9.95142 2.01562 10.7597 2.56988 11.2143 3.62799" fill="white"/>
<path d="M59.6054 24.8379C59.8074 24.0821 59.9084 23.4271 59.9084 22.8728C59.9084 21.1597 59.5043 19.7993 58.6961 18.7411C57.8879 17.683 56.827 17.1288 55.5642 17.1288C53.9477 17.1288 53.1395 17.7838 53.1395 19.1442C53.1395 19.3962 53.1395 19.6481 53.19 19.9L53.291 20.4039C53.291 21.5628 51.9776 22.117 49.3509 22.117C48.6436 22.117 48.3406 21.8147 48.3911 21.2101C48.3911 21.1093 48.3911 20.9078 48.4921 20.6558C48.5426 20.4543 48.5931 20.2527 48.6436 20.0008C48.8962 18.9427 49.4014 18.0861 50.2096 17.5319C52.0281 16.2722 54.2003 15.6172 56.726 15.6172C59.6559 15.6172 61.8785 16.2722 63.3435 17.6326C64.4548 18.6404 65.0104 20.4543 65.0104 23.024C65.0104 24.334 64.9599 25.9464 64.8589 27.8611C64.7579 30.0781 64.7074 31.5897 64.7074 32.3455C64.7074 34.109 65.4146 34.9656 66.829 34.9656C67.3341 34.9656 67.6877 34.9152 67.9403 34.764C68.1929 34.6633 68.3949 34.5625 68.5465 34.5625C68.7991 34.5625 68.9001 34.6633 68.9001 34.9152C68.9001 35.3183 68.5465 35.7214 67.8898 36.1245L66.8795 36.6283L66.0207 37.1322C65.4146 37.4849 64.7579 37.6361 64.0002 37.6361C62.4847 37.6361 61.2218 36.6787 60.2115 34.7137C57.0291 36.7291 54.4528 37.7368 52.3312 37.7368C50.8663 37.7368 49.755 37.3337 48.9467 36.4772C48.1385 35.6206 47.7344 34.5121 47.7344 33.0005C47.7344 30.33 48.8962 28.365 51.2199 27.1557C52.6848 26.4503 55.5137 25.6441 59.7064 24.8883M59.2012 26.3495C57.7363 26.2487 56.3219 26.7526 55.0085 27.9115C53.6951 29.0704 53.0384 30.2796 53.0384 31.6401C53.0384 33.9075 53.9477 35.016 55.7157 35.016C56.827 35.016 57.8373 34.764 58.6456 34.2098C59.1002 33.9075 59.4033 33.454 59.6054 32.799C59.7569 32.1439 59.8579 31.0354 59.8579 29.5238V27.5588V27.0045L59.7064 26.4503C59.7064 26.4503 59.4538 26.3495 59.1507 26.2991" fill="white"/>
<path d="M78.1938 16.6299V31.0404C78.1938 32.7536 78.4464 33.9629 78.9515 34.6179C79.4567 35.3233 80.4164 35.676 81.8309 35.7768C82.3865 35.7768 82.6896 36.0287 82.6896 36.3814C82.6896 36.8349 82.0329 37.0364 80.669 37.0364C80.5175 37.0364 80.1134 37.0364 79.5577 36.9357L77.6381 36.7341C76.5773 36.6333 75.8701 36.583 75.567 36.583C74.6577 36.583 73.4454 36.6837 71.8794 36.9357C71.5258 36.986 71.2227 37.0364 71.0207 37.0364C70.6671 37.0364 70.465 36.8853 70.465 36.5326C70.465 36.2806 70.5661 36.1295 70.8186 36.0287L71.6774 35.6256C72.031 35.4241 72.3846 35.021 72.6372 34.3156C72.8897 33.6102 73.0413 32.9047 73.0413 32.1489V31.0908V22.4747C73.0413 21.1647 72.8897 20.2577 72.6372 19.7539C72.3341 19.25 71.8289 18.9981 71.1217 18.9981H70.5155C70.2124 18.9981 69.9599 18.9477 69.8588 18.7965C69.8083 18.6958 69.7578 18.595 69.7578 18.4438C69.7578 17.9904 70.263 17.688 71.3238 17.4361C73.9 16.8819 75.9711 16.0757 77.4361 14.9672C77.6381 14.8664 77.7392 14.7656 77.8402 14.7656C78.0928 14.7656 78.1938 14.9672 78.1938 15.2695V15.5214C78.1938 15.5214 78.1938 16.0757 78.1938 16.6803" fill="white"/>
<path d="M92.3422 15.5226C93.5041 15.5226 94.7669 15.7242 96.1308 16.1273C96.838 16.3288 97.1916 16.6815 97.2422 17.135V18.2435L97.3937 19.8559V20.7125C97.3937 20.7125 97.4947 20.9644 97.4947 21.0148C97.4947 21.3171 97.2927 21.5186 96.9391 21.5186C96.6865 21.5186 96.2319 20.9644 95.5752 19.8559C94.3628 17.6893 92.8474 16.5808 91.0288 16.5808C90.1196 16.5808 89.3113 16.8831 88.6546 17.4373C87.9979 18.042 87.6443 18.697 87.6443 19.4528C87.6443 20.8636 88.6546 21.9721 90.6247 22.8287L92.3927 23.5341C93.9082 24.1387 94.9185 24.6426 95.4236 24.9953C95.9793 25.348 96.4844 25.8519 96.9896 26.4565C97.7978 27.565 98.2525 28.9254 98.2525 30.5378C98.2525 32.5533 97.5958 34.2664 96.2319 35.6268C94.868 37.0377 93.2515 37.6927 91.2814 37.6927C90.2206 37.6927 88.9577 37.4911 87.4423 37.1384L85.6743 36.7353L84.5124 36.5338C84.1588 36.4834 83.9568 36.2315 83.9568 35.8284C83.9568 35.6772 83.9568 35.4757 83.9568 35.1734C83.9568 34.871 84.0073 34.5687 84.0073 34.1656V31.3944L83.9063 30.1347C83.9063 29.7316 83.9062 29.4797 84.0073 29.3789C84.1083 29.2781 84.2599 29.2278 84.6135 29.2278C84.866 29.2278 85.0681 29.4797 85.1691 29.9332C85.3712 30.9913 85.9268 32.2509 86.8361 33.7625C87.9474 35.5261 89.4124 36.3826 91.2309 36.3826C92.2412 36.3826 93.0999 36.0803 93.8072 35.4253C94.4638 34.7703 94.8175 34.0145 94.8175 33.0571C94.8175 31.999 94.4638 31.1424 93.8577 30.5378C93.201 29.9332 91.9381 29.2278 90.1196 28.5223C87.9474 27.6658 86.3815 26.7588 85.5732 25.8015C84.765 24.8441 84.3104 23.5341 84.3104 21.9217C84.3104 19.9567 85.0176 18.3443 86.432 17.1854C87.8464 16.0265 89.766 15.4219 92.1907 15.4219" fill="white"/>
<path d="M113.605 15.5156C116.838 15.5156 119.465 16.5234 121.587 18.5388C123.658 20.5543 124.719 23.1744 124.719 26.2983C124.719 29.4223 123.557 32.2439 121.334 34.4105C119.061 36.5772 116.232 37.6857 112.848 37.6857C109.665 37.6857 107.038 36.6779 104.917 34.6625C102.795 32.647 101.734 30.1277 101.734 27.0541C101.734 23.8294 102.896 21.1085 105.22 18.8915C107.544 16.6241 110.322 15.5156 113.656 15.5156M112.342 16.9264C110.676 16.9264 109.413 17.6319 108.402 18.9923C107.443 20.4031 106.937 22.2674 106.937 24.6356C106.937 27.8603 107.695 30.5812 109.16 32.8989C110.676 35.2167 112.444 36.3756 114.565 36.3756C116.182 36.3756 117.444 35.7206 118.455 34.4105C119.465 33.1005 119.97 31.4377 119.97 29.3215C119.97 25.8448 119.213 22.9224 117.748 20.5543C116.232 18.1357 114.414 16.9264 112.292 16.9264" fill="white"/>
<path d="M151.488 26.2975V31.4369C151.488 32.5454 151.538 33.3012 151.69 33.7043C151.791 34.1074 152.094 34.4601 152.498 34.8631C153.104 35.367 153.913 35.6189 154.872 35.7197C155.377 35.7701 155.681 36.022 155.681 36.3244C155.681 36.8282 155.074 37.0801 153.862 37.0801C153.609 37.0801 153.256 37.0802 152.751 36.9794L151.084 36.7778C150.326 36.6771 149.72 36.6771 149.316 36.6771C147.699 36.6771 146.386 36.7778 145.426 36.9794C145.022 37.0298 144.719 37.0801 144.416 37.0801C144.062 37.0801 143.86 36.8786 143.86 36.5259C143.86 36.2236 144.062 36.022 144.416 35.8709C145.173 35.6189 145.679 35.2159 145.931 34.6616C146.184 34.1074 146.335 33.2004 146.335 31.8903V25.8944C146.335 23.5766 145.881 21.7627 144.971 20.4022C144.062 19.0418 142.799 18.3868 141.183 18.3868C139.768 18.3868 138.607 18.7899 137.748 19.5457C136.889 20.3015 136.434 21.3596 136.434 22.6192V31.0842C136.434 32.6461 136.737 33.805 137.293 34.5104C137.849 35.2159 138.859 35.6693 140.274 35.7701C140.728 35.8205 140.981 36.022 140.981 36.3747C140.981 36.8282 140.678 37.0801 140.071 37.0801C139.465 37.0801 138.859 37.0298 138.051 36.929C136.131 36.6771 134.818 36.5763 134.06 36.5763C133.05 36.5763 131.939 36.6771 130.625 36.8282C130.019 36.929 129.615 36.9794 129.362 36.9794C128.958 36.9794 128.706 36.8282 128.706 36.4251C128.706 36.1732 128.857 36.022 129.11 35.8709C129.968 35.5686 130.524 35.2159 130.777 34.8128C131.029 34.4097 131.13 33.7546 131.13 32.6965V31.84V22.8712V21.8634C131.13 20.6542 130.979 19.7976 130.726 19.3441C130.474 18.8906 130.019 18.6387 129.362 18.6387H128.2C128.2 18.6387 127.897 18.6387 127.796 18.4876C127.695 18.3868 127.695 18.286 127.695 18.0845C127.695 17.7821 127.796 17.5302 128.099 17.4294C128.352 17.3287 129.11 17.0767 130.373 16.7744C132.494 16.2705 134.313 15.5651 135.727 14.5574C135.828 14.4566 135.98 14.4062 136.081 14.4062C136.283 14.4062 136.384 14.5574 136.384 14.9101L136.283 16.2202V17.6814L136.384 18.6387C136.434 18.8403 136.586 18.941 136.737 18.941C136.889 18.941 137.142 18.7395 137.546 18.2356C139.112 16.3209 141.183 15.414 143.759 15.414C146.537 15.414 148.507 16.2705 149.669 17.9333C150.882 19.5961 151.437 22.3673 151.437 26.1967" fill="white"/>
<path d="M180.851 3.78345L191.308 26.5581C191.762 27.5658 192.167 28.0697 192.47 28.0193C192.773 28.0193 193.076 27.6666 193.429 26.9612L203.027 6.55471C203.937 4.64002 204.593 3.38036 204.947 2.92688C205.351 2.42302 205.856 2.17109 206.462 2.17109C206.715 2.17109 207.068 2.17109 207.574 2.22147C208.079 2.27186 208.584 2.32224 209.089 2.32224C209.796 2.32224 210.655 2.27186 211.665 2.17109C212.17 2.17109 212.575 2.1207 212.827 2.1207C213.433 2.1207 213.736 2.37263 213.736 2.82611C213.736 3.2292 213.484 3.43075 213.029 3.48113C211.413 3.58191 210.301 4.13616 209.695 5.0935C209.089 6.05084 208.735 7.66321 208.735 9.9306V11.6437L209.392 27.4651V28.4728C209.392 30.841 209.847 32.5541 210.655 33.6626C211.463 34.7711 212.827 35.4765 214.696 35.6781C215.201 35.7285 215.403 35.9804 215.403 36.4339C215.403 36.8873 214.848 37.1393 213.686 37.1393C213.332 37.1393 212.777 37.1393 212.069 36.9881C209.998 36.7362 208.533 36.6354 207.624 36.6354C205.856 36.6354 204.341 36.7362 203.179 36.8873C202.068 37.0385 201.259 37.1393 200.855 37.1393C200.451 37.1393 200.198 36.9377 200.198 36.4842C200.198 36.1819 200.451 35.93 200.956 35.7788C201.916 35.5269 202.623 35.0734 203.027 34.4688C203.431 33.8642 203.633 33.0076 203.633 31.8487C203.633 31.2944 203.633 30.8914 203.633 30.6394L202.876 13.76C202.876 13.3065 202.724 13.0546 202.522 13.0546C202.27 13.0546 201.916 13.508 201.461 14.4654L191.864 34.7711L191.51 35.5269C191.005 36.585 190.601 37.1393 190.298 37.1393C189.944 37.1393 189.287 36.2323 188.428 34.368L187.115 31.7479L178.932 13.6088L178.73 13.2057C178.73 13.2057 178.578 13.0042 178.427 13.0042C178.174 13.0042 178.022 13.3569 178.022 14.0623V14.8685L177.669 27.717V28.7247L177.871 31.0929C178.326 33.6122 179.689 35.1238 181.862 35.6781C182.619 35.8796 183.023 36.1819 183.023 36.5346C183.023 36.9881 182.72 37.1897 182.114 37.1897C181.66 37.1897 181.104 37.1897 180.498 37.0889L178.679 36.837C178.225 36.7866 177.568 36.7362 176.709 36.7362C175.143 36.7362 173.931 36.7866 173.072 36.9881C172.516 37.0889 172.062 37.1393 171.809 37.1393C171.253 37.1393 171.001 36.9377 171.001 36.4842C171.001 36.1819 171.203 35.93 171.607 35.8292C172.92 35.3757 173.88 34.6199 174.486 33.4611C175.093 32.3526 175.396 30.7906 175.396 28.7751L176.103 12.0972L176.204 10.3841C176.204 8.36862 175.699 6.75625 174.739 5.59736C173.729 4.43848 172.365 3.83384 170.647 3.83384C169.991 3.83384 169.688 3.58191 169.688 3.07804C169.688 2.57418 170.041 2.32224 170.799 2.32224C170.95 2.32224 171.152 2.32224 171.405 2.32224L172.87 2.42302C173.173 2.42302 173.476 2.42302 173.931 2.42302C174.739 2.42302 175.497 2.37263 176.254 2.27186C177.416 2.1207 178.174 2.07031 178.528 2.07031C179.639 2.07031 180.447 2.62456 180.902 3.68268" fill="white"/>
<path d="M229.292 24.8379C229.494 24.0821 229.595 23.4271 229.595 22.8728C229.595 21.1597 229.191 19.7993 228.383 18.7411C227.575 17.683 226.514 17.1288 225.201 17.1288C223.584 17.1288 222.776 17.7838 222.776 19.1442C222.776 19.3962 222.776 19.6481 222.826 19.9V20.4039C222.877 21.5628 221.564 22.117 218.937 22.117C218.23 22.117 217.926 21.8147 217.977 21.2101C217.977 21.1093 217.977 20.9078 218.129 20.6558C218.129 20.4543 218.23 20.2527 218.28 20.0008C218.482 18.9427 219.038 18.0861 219.846 17.5319C221.665 16.2722 223.837 15.6172 226.362 15.6172C229.292 15.6172 231.515 16.2722 232.98 17.6326C234.091 18.6404 234.647 20.4543 234.647 23.024C234.647 24.334 234.596 25.9464 234.495 27.8611C234.394 30.0781 234.344 31.5897 234.344 32.3455C234.344 34.109 235.051 34.9656 236.465 34.9656C236.971 34.9656 237.324 34.9152 237.577 34.764C237.829 34.6633 238.031 34.5625 238.132 34.5625C238.385 34.5625 238.486 34.6633 238.486 34.9152C238.486 35.3183 238.132 35.7214 237.476 36.1245L236.465 36.6283L235.607 37.1322C235 37.4849 234.293 37.6361 233.586 37.6361C232.071 37.6361 230.808 36.6787 229.797 34.7137C226.615 36.7291 223.988 37.7368 221.917 37.7368C220.452 37.7368 219.341 37.3337 218.533 36.4772C217.724 35.6206 217.32 34.5121 217.32 33.0005C217.32 30.33 218.482 28.365 220.856 27.1557C222.271 26.4503 225.15 25.6441 229.343 24.8883M228.838 26.3495C227.373 26.2487 226.009 26.7526 224.645 27.9115C223.332 29.0704 222.675 30.2796 222.675 31.6401C222.675 33.9075 223.584 35.016 225.403 35.016C226.514 35.016 227.474 34.764 228.333 34.2098C228.787 33.9075 229.09 33.454 229.292 32.799C229.444 32.1439 229.545 31.0354 229.545 29.5238V27.5588V27.0045L229.393 26.4503C229.393 26.4503 229.141 26.3495 228.838 26.2991" fill="white"/>
<path d="M247.875 24.2383V31.3932C247.875 34.0636 249.137 35.5752 251.613 35.9279C252.118 35.9783 252.421 36.1799 252.421 36.5326C252.421 36.9357 252.219 37.1876 251.815 37.1876C251.613 37.1876 251.411 37.1876 251.107 37.1372C249.39 36.8853 247.622 36.7341 245.854 36.7341C244.894 36.7341 244.035 36.7341 243.278 36.8349L241.712 36.9861C241.409 36.9861 241.106 36.9861 240.802 36.9861C240.297 36.9861 240.095 36.7341 240.095 36.331C240.095 36.0287 240.297 35.8272 240.701 35.7264C242.065 35.4241 242.722 34.1644 242.722 31.9474V30.8893V21.8197C242.722 20.6105 242.57 19.8043 242.267 19.4012C241.964 18.9981 241.257 18.7965 240.247 18.6958C239.843 18.6958 239.641 18.4942 239.641 18.1415C239.641 17.7384 239.893 17.5369 240.348 17.4361C242.672 17.0834 244.692 16.4284 246.359 15.471L247.369 14.9168C247.369 14.9168 247.622 14.7656 247.723 14.7656C247.976 14.7656 248.127 14.9672 248.127 15.3199C248.127 15.4206 248.127 15.6726 248.127 16.0757V17.4865L247.976 19.0989V19.4012C247.976 19.4012 248.178 19.7539 248.38 19.8043C248.531 19.8043 248.935 19.4012 249.491 18.595C249.946 17.94 250.653 17.2346 251.613 16.5292C252.572 15.7734 253.229 15.4206 253.583 15.4206C254.138 15.4206 255.048 15.8741 256.21 16.7307C257.371 17.6377 257.927 18.2423 257.978 18.6958C257.978 18.8469 257.725 19.4516 257.169 20.4593C256.462 21.7693 255.856 22.4244 255.3 22.4244C255.098 22.4244 254.896 22.3236 254.694 22.1724L253.987 21.5174C253.128 20.7112 252.118 20.3081 251.006 20.3081C249.036 20.3081 248.026 21.6182 248.026 24.2887" fill="white"/>
<path d="M275.858 17.5853C277.071 17.4341 277.98 17.1318 278.586 16.6279C279.192 16.124 279.546 15.4186 279.698 14.5117C279.698 14.159 279.9 14.0078 280.203 14.0078C280.506 14.0078 280.657 14.2597 280.657 14.6628C280.657 15.0659 280.556 15.9729 280.354 17.3837C280.203 18.341 280.152 18.9457 280.152 19.248C280.152 19.6511 280.001 19.9534 279.799 20.1046C279.597 20.3061 279.041 20.5581 278.182 20.9611C278.182 21.3138 278.182 21.5658 278.283 21.7673C278.384 22.5735 278.435 23.0774 278.435 23.2789C278.435 25.1432 277.576 26.6548 275.808 27.9145C274.04 29.1741 271.868 29.7788 269.292 29.7788C268.483 29.7788 267.625 29.678 266.715 29.5268C266.362 29.4765 266.059 29.4261 265.806 29.4261C265.25 29.4261 264.846 29.6276 264.442 30.0307C264.089 30.4338 263.886 30.988 263.886 31.5927C263.886 33.0539 265.149 33.8097 267.726 33.8097C272.676 33.8097 276.01 34.112 277.626 34.7166C279.243 35.3213 280.051 36.5809 280.051 38.4956C280.051 40.6119 279.142 42.3754 277.273 43.8366C275.454 45.2978 272.727 46.0032 269.089 46.0032C265.958 46.0032 263.533 45.6001 261.866 44.8443C260.199 44.0885 259.391 42.98 259.391 41.5692C259.391 40.8134 259.643 40.1584 260.199 39.5034C260.755 38.8483 261.361 38.4452 262.068 38.3445C262.876 38.1933 263.28 38.0421 263.28 37.891L263.078 37.5383L262.32 36.7825C261.563 35.9763 261.159 35.0693 261.159 34.0112C261.159 32.55 261.765 31.24 262.876 30.1819L263.684 29.4261C263.684 29.4261 263.937 29.1237 263.937 28.9222C263.937 28.6703 263.583 28.368 262.876 27.9145C262.118 27.5114 261.462 26.7556 260.906 25.6471C260.35 24.5386 260.047 23.5309 260.047 22.5735C260.047 20.5077 260.906 18.7945 262.624 17.3837C264.341 16.0233 266.513 15.3682 269.191 15.3682C271.868 15.3682 273.989 16.0737 275.909 17.4341M265.604 38.2941C264.947 38.2941 264.392 38.546 263.987 38.9995C263.583 39.453 263.331 40.0576 263.331 40.7126C263.331 41.9723 263.937 42.98 265.099 43.6854C266.261 44.4412 267.877 44.7939 269.948 44.7939C271.767 44.7939 273.181 44.4916 274.293 43.8366C275.404 43.1816 275.96 42.325 275.96 41.3173C275.96 40.4103 275.606 39.8561 274.949 39.5537C274.293 39.2514 272.676 38.9995 270.201 38.7979C268.736 38.6972 267.625 38.5964 266.816 38.4452L266.16 38.2941C266.16 38.2941 265.755 38.2437 265.553 38.2437M269.089 16.376C267.776 16.376 266.766 16.8798 266.008 17.8876C265.25 18.8953 264.897 20.3061 264.897 22.0193C264.897 23.9339 265.301 25.4959 266.109 26.7052C266.917 27.9649 267.928 28.5695 269.14 28.5695C270.352 28.5695 271.363 28.0656 272.171 27.0579C272.929 26.0502 273.282 24.7401 273.282 23.0774C273.282 18.593 271.868 16.3256 269.089 16.3256" fill="white"/>
<path d="M291.01 16.6299V31.0404C291.01 32.7536 291.263 33.9629 291.819 34.6179C292.324 35.3233 293.284 35.676 294.698 35.7768C295.254 35.7768 295.557 36.0287 295.557 36.3814C295.557 36.8349 294.9 37.0364 293.536 37.0364C293.385 37.0364 292.981 37.0364 292.425 36.9357L290.505 36.7341C289.444 36.6333 288.737 36.583 288.434 36.583C287.525 36.583 286.313 36.6837 284.747 36.9357C284.393 36.986 284.09 37.0364 283.888 37.0364C283.534 37.0364 283.332 36.8853 283.332 36.5326C283.332 36.2806 283.433 36.1295 283.686 36.0287L284.545 35.6256C284.898 35.4241 285.252 35.021 285.504 34.3156C285.757 33.6102 285.908 32.9047 285.908 32.1489V31.0908V22.4747C285.908 21.1647 285.757 20.2577 285.504 19.7539C285.201 19.25 284.696 18.9981 283.989 18.9981H283.383C283.08 18.9981 282.827 18.9477 282.726 18.7965C282.676 18.6958 282.625 18.595 282.625 18.4438C282.625 17.9904 283.13 17.688 284.191 17.4361C286.767 16.8819 288.838 16.0757 290.303 14.9672C290.505 14.8664 290.606 14.7656 290.707 14.7656C290.96 14.7656 291.061 14.9672 291.061 15.2695V15.5214C291.061 15.5214 291.01 16.0757 291.01 16.6803" fill="white"/>
<path d="M307.087 15.4688C309.714 15.4688 311.987 16.5269 313.907 18.5423C315.523 20.3058 316.281 22.0694 316.281 23.7825C316.281 24.4375 315.826 24.7902 314.917 24.7902H313.755L313.149 24.7399H311.583L306.734 24.8406H304.208H303.349C302.844 24.8406 302.541 24.891 302.389 24.9918C302.187 25.1933 302.086 25.4957 302.086 25.9491C302.086 28.2165 302.844 30.1816 304.309 31.8947C305.774 33.6079 307.491 34.5148 309.411 34.5148C311.583 34.5148 313.301 33.9102 314.614 32.6505L315.422 31.8443C315.422 31.8443 315.675 31.6428 315.826 31.6428C316.18 31.6428 316.382 31.8443 316.382 32.197C316.382 32.7009 315.725 33.5071 314.412 34.666C312.088 36.6814 309.613 37.6892 306.936 37.6892C304.006 37.6892 301.581 36.6814 299.763 34.666C297.894 32.6505 296.984 30.0304 296.984 26.8561C296.984 23.6817 297.995 21.112 299.965 18.8446C301.935 16.5773 304.309 15.4688 307.037 15.4688M306.33 16.7788C305.168 16.7788 304.157 17.333 303.299 18.4919C302.44 19.6508 301.985 20.9609 301.985 22.4725C301.985 22.9763 302.086 23.2786 302.339 23.329C302.592 23.4298 303.248 23.4802 304.36 23.4802C304.915 23.4802 305.521 23.4802 306.128 23.4298C307.643 23.3794 308.552 23.329 308.754 23.329C310.27 23.329 310.977 22.8756 310.977 21.9686C310.977 20.6082 310.522 19.3989 309.563 18.3408C308.603 17.2827 307.491 16.7788 306.279 16.7788" fill="white"/>
<path d="M327.232 7.55797V30.8869C327.232 32.5496 327.485 33.7085 327.99 34.3636C328.445 35.0186 329.404 35.4721 330.768 35.724C331.223 35.7744 331.476 35.8752 331.526 35.9255C331.577 35.9759 331.627 36.1775 331.627 36.4294C331.627 36.8325 331.476 37.034 331.122 37.034C330.92 37.034 330.617 37.034 330.213 36.9333C328.849 36.7317 327.182 36.6813 325.161 36.6813C322.939 36.6813 321.373 36.7821 320.463 36.9333C320.211 36.9837 320.009 37.034 319.908 37.034C319.554 37.034 319.352 36.8325 319.352 36.379C319.352 36.1775 319.554 35.9759 320.009 35.7744C321.272 35.2705 321.928 34.1116 321.928 32.4489V30.9877L322.029 30.2823V9.82536C322.029 7.65874 321.878 6.14715 321.474 5.34096C321.12 4.53478 320.413 4.13169 319.453 4.13169C318.948 4.13169 318.695 3.87976 318.695 3.47666C318.695 3.22473 318.796 3.02319 318.998 2.92241C319.2 2.82164 319.706 2.67048 320.514 2.51932C322.686 2.06584 324.404 1.46121 325.717 0.655024L326.576 0.151159C326.576 0.151159 326.879 0 327.03 0C327.283 0 327.434 0.151159 327.434 0.503864C327.434 0.70541 327.434 1.1085 327.384 1.76353C327.232 4.03092 327.182 5.99599 327.182 7.55797" fill="white"/>
<path d="M345.422 24.8379C345.624 24.0821 345.725 23.4271 345.725 22.8728C345.725 21.1597 345.32 19.7993 344.512 18.7411C343.704 17.683 342.643 17.1288 341.38 17.1288C339.764 17.1288 338.956 17.7838 338.956 19.1442C338.956 19.3962 338.956 19.6481 338.956 19.9L339.057 20.4039C339.057 21.5628 337.743 22.117 335.116 22.117C334.409 22.117 334.106 21.8147 334.157 21.2101C334.157 21.1093 334.157 20.9078 334.308 20.6558C334.308 20.4543 334.409 20.2527 334.46 20.0008C334.662 18.9427 335.218 18.0861 336.026 17.5319C337.844 16.2722 340.016 15.6172 342.542 15.6172C345.472 15.6172 347.695 16.2722 349.16 17.6326C350.271 18.6404 350.827 20.4543 350.827 23.024C350.827 24.334 350.827 25.9464 350.675 27.8611C350.574 30.0781 350.524 31.5897 350.524 32.3455C350.524 34.109 351.231 34.9656 352.645 34.9656C353.15 34.9656 353.504 34.9152 353.756 34.764C354.009 34.6633 354.211 34.5625 354.312 34.5625C354.565 34.5625 354.666 34.6633 354.666 34.9152C354.666 35.3183 354.312 35.7214 353.655 36.1245L352.645 36.6283L351.786 37.1322C351.18 37.4849 350.524 37.6361 349.766 37.6361C348.25 37.6361 346.987 36.6787 345.977 34.7137C342.795 36.7291 340.218 37.7368 338.097 37.7368C336.632 37.7368 335.521 37.3337 334.712 36.4772C333.904 35.6206 333.5 34.5121 333.5 33.0005C333.5 30.33 334.662 28.365 337.036 27.1557C338.45 26.4503 341.33 25.6441 345.523 24.8883M345.017 26.3495C343.552 26.2487 342.189 26.7526 340.825 27.9115C339.511 29.0704 338.855 30.2796 338.855 31.6401C338.855 33.9075 339.764 35.016 341.532 35.016C342.643 35.016 343.654 34.764 344.462 34.2098C344.916 33.9075 345.219 33.454 345.422 32.799C345.573 32.1439 345.674 31.0354 345.674 29.5238V27.5588V27.0045L345.523 26.4503C345.523 26.4503 345.27 26.3495 344.967 26.2991" fill="white"/>
<path d="M72.5391 6.80286C72.5391 5.03933 74.004 3.57812 75.772 3.57812C77.54 3.57812 79.005 5.03933 79.005 6.80286C79.005 8.56638 77.54 10.0276 75.772 10.0276C74.004 10.0276 72.5391 8.56638 72.5391 6.80286Z" fill="white"/>
<path d="M284.891 6.49817C284.891 4.73464 286.356 3.27344 288.124 3.27344C289.892 3.27344 291.357 4.73464 291.357 6.49817C291.357 8.2617 289.892 9.7229 288.124 9.7229C286.356 9.7229 284.891 8.2617 284.891 6.49817Z" fill="white"/>
<path d="M424.175 10.5768L422.508 8.91406L410.789 20.6037L399.12 8.91406L397.453 10.5768L409.173 22.2665L397.453 33.9057L399.12 35.5685L410.789 23.8788L422.508 35.5685L424.175 33.9057L412.456 22.2665L424.175 10.5768Z" fill="white"/>
</svg>
